HIERARCHY
ROOT Hips
{
  OFFSET -22.557 20.289 -257.884
  CHANNELS 6 Xposition Yposition Zposition Zrotation Xrotation Yrotation
  JOINT LeftUpLeg
  {
    OFFSET 4.621 -4.553 2.043
    CHANNELS 6 Xposition Yposition Zposition Zrotation Xrotation Yrotation
    JOINT LeftLeg
    {
      OFFSET -0.000 -43.315 0.000
      CHANNELS 6 Xposition Yposition Zposition Zrotation Xrotation Yrotation
      JOINT LeftFoot
      {
        OFFSET 0.000 -41.128 -0.000
        CHANNELS 6 Xposition Yposition Zposition Zrotation Xrotation Yrotation
        End Site
        {
          OFFSET -0.000 -8.156 4.709
        }
      }
    }
  }
  JOINT RightUpLeg
  {
    OFFSET -4.663 -4.290 2.446
    CHANNELS 6 Xposition Yposition Zposition Zrotation Xrotation Yrotation
    JOINT RightLeg
    {
      OFFSET 0.000 -44.360 0.000
      CHANNELS 6 Xposition Yposition Zposition Zrotation Xrotation Yrotation
      JOINT RightFoot
      {
        OFFSET 0.000 -40.536 -0.000
        CHANNELS 6 Xposition Yposition Zposition Zrotation Xrotation Yrotation
        End Site
        {
          OFFSET 0.000 -7.953 4.592
        }
      }
    }
  }
  JOINT Spine
  {
    OFFSET 0.000 7.276 -7.276
    CHANNELS 6 Xposition Yposition Zposition Zrotation Xrotation Yrotation
    JOINT LeftShoulder
    {
      OFFSET -0.000 39.142 0.000
      CHANNELS 6 Xposition Yposition Zposition Zrotation Xrotation Yrotation
      JOINT LeftArm
      {
        OFFSET 16.482 0.000 -0.000
        CHANNELS 6 Xposition Yposition Zposition Zrotation Xrotation Yrotation
        JOINT LeftForeArm
        {
          OFFSET 29.234 0.000 0.000
          CHANNELS 6 Xposition Yposition Zposition Zrotation Xrotation Yrotation
          JOINT LeftHand
          {
            OFFSET 25.942 0.000 -0.000
            CHANNELS 6 Xposition Yposition Zposition Zrotation Xrotation Yrotation
            JOINT LeftHandThumb1
            {
            OFFSET 4.970 -0.620 3.390
            CHANNELS 6 Xposition Yposition Zposition Zrotation Xrotation Yrotation
              JOINT LeftHandThumb2
              {
              OFFSET 2.150 -0.000 0.000
              CHANNELS 6 Xposition Yposition Zposition Zrotation Xrotation Yrotation
                JOINT LeftHandThumb3
                {
                OFFSET 2.200 -0.000 0.000
                CHANNELS 6 Xposition Yposition Zposition Zrotation Xrotation Yrotation
                  JOINT LeftHandThumb4
                  {
                  OFFSET 1.700 -0.000 0.000
                  CHANNELS 6 Xposition Yposition Zposition Zrotation Xrotation Yrotation
                  }
                }
              }
            }
            JOINT LeftHandIndex1
            {
            OFFSET 8.730 0.680 2.070
            CHANNELS 6 Xposition Yposition Zposition Zrotation Xrotation Yrotation
              JOINT LeftHandIndex2
              {
              OFFSET 2.670 -0.000 0.000
              CHANNELS 6 Xposition Yposition Zposition Zrotation Xrotation Yrotation
                JOINT LeftHandIndex3
                {
                OFFSET 2.130 -0.000 0.000
                CHANNELS 6 Xposition Yposition Zposition Zrotation Xrotation Yrotation
                  JOINT LeftHandIndex4
                  {
                  OFFSET 1.800 -0.000 0.000
                  CHANNELS 6 Xposition Yposition Zposition Zrotation Xrotation Yrotation
                  }
                }
              }
            }
            JOINT LeftHandMiddle1
            {
            OFFSET 9.220 0.670 0.550
            CHANNELS 6 Xposition Yposition Zposition Zrotation Xrotation Yrotation
              JOINT LeftHandMiddle2
              {
              OFFSET 2.660 -0.000 0.000
              CHANNELS 6 Xposition Yposition Zposition Zrotation Xrotation Yrotation
                JOINT LeftHandMiddle3
                {
                OFFSET 2.280 -0.000 0.000
                CHANNELS 6 Xposition Yposition Zposition Zrotation Xrotation Yrotation
                  JOINT LeftHandMiddle4
                  {
                  OFFSET 1.500 -0.000 0.000
                  CHANNELS 6 Xposition Yposition Zposition Zrotation Xrotation Yrotation
                  }
                }
              }
            }
            JOINT LeftHandRing1
            {
            OFFSET 9.250 0.670 -1.130
            CHANNELS 6 Xposition Yposition Zposition Zrotation Xrotation Yrotation
              JOINT LeftHandRing2
              {
              OFFSET 2.470 -0.000 0.000
              CHANNELS 6 Xposition Yposition Zposition Zrotation Xrotation Yrotation
                JOINT LeftHandRing3
                {
                OFFSET 2.210 -0.000 0.000
                CHANNELS 6 Xposition Yposition Zposition Zrotation Xrotation Yrotation
                  JOINT LeftHandRing4
                  {
                  OFFSET 1.800 -0.000 0.000
                  CHANNELS 6 Xposition Yposition Zposition Zrotation Xrotation Yrotation
                  }
                }
              }
            }
            JOINT LeftHandPinky1
            {
            OFFSET 9.350 0.660 -2.720
            CHANNELS 6 Xposition Yposition Zposition Zrotation Xrotation Yrotation
              JOINT LeftHandPinky2
              {
              OFFSET 1.630 -0.000 0.000
              CHANNELS 6 Xposition Yposition Zposition Zrotation Xrotation Yrotation
                JOINT LeftHandPinky3
                {
                OFFSET 1.710 -0.000 0.000
                CHANNELS 6 Xposition Yposition Zposition Zrotation Xrotation Yrotation
                  JOINT LeftHandPinky4
                  {
                  OFFSET 1.800 -0.000 0.000
                  CHANNELS 6 Xposition Yposition Zposition Zrotation Xrotation Yrotation
                  }
                }
              }
            }
          }
        }
      }
    }
    JOINT RightShoulder
    {
      OFFSET -0.000 39.142 0.000
      CHANNELS 6 Xposition Yposition Zposition Zrotation Xrotation Yrotation
      JOINT RightArm
      {
        OFFSET -16.492 0.000 -0.000
        CHANNELS 6 Xposition Yposition Zposition Zrotation Xrotation Yrotation
        JOINT RightForeArm
        {
          OFFSET -29.706 -0.000 0.000
          CHANNELS 6 Xposition Yposition Zposition Zrotation Xrotation Yrotation
          JOINT RightHand
          {
            OFFSET -26.228 0.000 -0.000
            CHANNELS 6 Xposition Yposition Zposition Zrotation Xrotation Yrotation
            JOINT RightHandThumb1
            {
            OFFSET -4.970 -0.620 3.390
            CHANNELS 6 Xposition Yposition Zposition Zrotation Xrotation Yrotation
              JOINT RightHandThumb2
              {
              OFFSET -2.150 0.000 0.000
              CHANNELS 6 Xposition Yposition Zposition Zrotation Xrotation Yrotation
                JOINT RightHandThumb3
                {
                OFFSET -2.200 0.000 0.000
                CHANNELS 6 Xposition Yposition Zposition Zrotation Xrotation Yrotation
                  JOINT RightHandThumb4
                  {
                  OFFSET -1.700 0.000 0.000
                  CHANNELS 6 Xposition Yposition Zposition Zrotation Xrotation Yrotation
                  }
                }
              }
            }
            JOINT RightHandIndex1
            {
            OFFSET -8.730 0.680 2.070
            CHANNELS 6 Xposition Yposition Zposition Zrotation Xrotation Yrotation
              JOINT RightHandIndex2
              {
              OFFSET -2.670 0.000 0.000
              CHANNELS 6 Xposition Yposition Zposition Zrotation Xrotation Yrotation
                JOINT RightHandIndex3
                {
                OFFSET -2.130 0.000 0.000
                CHANNELS 6 Xposition Yposition Zposition Zrotation Xrotation Yrotation
                  JOINT RightHandIndex4
                  {
                  OFFSET -1.800 0.000 0.000
                  CHANNELS 6 Xposition Yposition Zposition Zrotation Xrotation Yrotation
                  }
                }
              }
            }
            JOINT RightHandMiddle1
            {
            OFFSET -9.220 0.670 0.550
            CHANNELS 6 Xposition Yposition Zposition Zrotation Xrotation Yrotation
              JOINT RightHandMiddle2
              {
              OFFSET -2.660 0.000 0.000
              CHANNELS 6 Xposition Yposition Zposition Zrotation Xrotation Yrotation
                JOINT RightHandMiddle3
                {
                OFFSET -2.280 0.000 0.000
                CHANNELS 6 Xposition Yposition Zposition Zrotation Xrotation Yrotation
                  JOINT RightHandMiddle4
                  {
                  OFFSET -1.500 0.000 0.000
                  CHANNELS 6 Xposition Yposition Zposition Zrotation Xrotation Yrotation
                  }
                }
              }
            }
            JOINT RightHandRing1
            {
            OFFSET -9.250 0.670 -1.130
            CHANNELS 6 Xposition Yposition Zposition Zrotation Xrotation Yrotation
              JOINT RightHandRing2
              {
              OFFSET -2.470 0.000 0.000
              CHANNELS 6 Xposition Yposition Zposition Zrotation Xrotation Yrotation
                JOINT RightHandRing3
                {
                OFFSET -2.210 0.000 0.000
                CHANNELS 6 Xposition Yposition Zposition Zrotation Xrotation Yrotation
                  JOINT RightHandRing4
                  {
                  OFFSET -1.800 0.000 0.000
                  CHANNELS 6 Xposition Yposition Zposition Zrotation Xrotation Yrotation
                  }
                }
              }
            }
            JOINT RightHandPinky1
            {
            OFFSET -9.350 0.660 -2.720
            CHANNELS 6 Xposition Yposition Zposition Zrotation Xrotation Yrotation
              JOINT RightHandPinky2
              {
              OFFSET -1.630 0.000 0.000
              CHANNELS 6 Xposition Yposition Zposition Zrotation Xrotation Yrotation
                JOINT RightHandPinky3
                {
                OFFSET -1.710 0.000 0.000
                CHANNELS 6 Xposition Yposition Zposition Zrotation Xrotation Yrotation
                  JOINT RightHandPinky4
                  {
                  OFFSET -1.800 0.000 0.000
                  CHANNELS 6 Xposition Yposition Zposition Zrotation Xrotation Yrotation
                  }
                }
              }
            }
          }
        }
      }
    }
    JOINT Neck
    {
      OFFSET -0.000 39.142 0.000
      CHANNELS 6 Xposition Yposition Zposition Zrotation Xrotation Yrotation
      JOINT Head
      {
        OFFSET -0.000 27.786 -0.000
        CHANNELS 6 Xposition Yposition Zposition Zrotation Xrotation Yrotation
        End Site
        {
          OFFSET -0.000 0.111 -0.000
        }
      }
    }
  }
}
MOTION
Frames:	6
Frame Time:	0.0333333
-74.0349 45.7394 -270.578 -6.24457 9.48501 65.5596 5.90205 -6.65921 1.81974 2.85843 -5.2164 -1.89428 0 -49.7676 -2.38419e-05 -9.91027 14.5326 1.76399e-06 0 -44.8118 7.15256e-05 13.8891 -20.2071 12.759 -6.75166 -5.53159 1.14185 -5.47347 1.18666 -3.04614 1.19209e-05 -53.3486 -1.19209e-05 5.14726 2.34614 -0.211275 -2.38419e-05 -39.51 3.57628e-05 8.50421 -7.96708 6.24759 2.38419e-05 6.61114 -6.61112 -2.93419 -5.01477 0.609084 4.76837e-05 39.1415 -1.19209e-05 -30.6656 2.56132e-06 -1.20341 19.2871 -3.57628e-05 2.38419e-05 -3.80953 83.2243 -37.6768 29.18 1.19209e-05 0 7.11688e-06 1.02453e-05 -32.8247 25.1552 0 2.38419e-05 13.6397 0.174338 14.578 0.0062 0.0497 0.0339 0 0 0 0 0.0215 0 0 0 0 0 0.022 0 0 0 0 0 0.017 0 0 0 0 -0.0068 0.0873 0.0207 0 0 0 0 0.0267 0 0 0 0 0 0.0213 0 0 0 0 0 0.018 0 0 0 0 -0.0067 0.0922 0.0055 0 0 0 0 0.0266 0 0 0 0 0 0.0228 0 0 0 0 0 0.015 0 0 0 0 -0.0067 0.0925 -0.0113 0 0 0 0 0.0247 0 0 0 0 0 0.0221 0 0 0 0 0 0.018 0 0 0 0 -0.0066 0.0935 -0.0272 0 0 0 0 0.0163 0 0 0 0 0 0.0171 0 0 0 0 0 0.018 0 0 0 0 4.76837e-05 39.1415 -1.19209e-05 39.8878 6.83019e-06 1.24315 -18.6708 -5.96046e-06 1.19209e-05 26.8893 51.1197 -10.3692 -24.0307 4.76837e-05 -3.20375e-05 -2.73149e-06 1.36604e-05 45.1787 -25.583 4.76837e-05 3.57628e-05 4.55525 0.00738406 4.66907 -0.0062 0.0497 0.0339 0 0 0 0 0.0215 0 0 0 0 0 0.022 0 0 0 0 0 0.017 0 0 0 0 0.0068 0.0873 0.0207 0 0 0 0 0.0267 0 0 0 0 0 0.0213 0 0 0 0 0 0.018 0 0 0 0 0.0067 0.0922 0.0055 0 0 0 0 0.0266 0 0 0 0 0 0.0228 0 0 0 0 0 0.015 0 0 0 0 0.0067 0.0925 -0.0113 0 0 0 0 0.0247 0 0 0 0 0 0.0221 0 0 0 0 0 0.018 0 0 0 0 0.0066 0.0935 -0.0272 0 0 0 0 0.0163 0 0 0 0 0 0.0171 0 0 0 0 0 0.018 0 0 0 0 4.76837e-05 39.1415 -1.19209e-05 -5.98765 36.8785 3.60173 0 21.5362 -2.38419e-05 7.68396e-06 -1.8783e-05 1.70755e-06 
-74.0349 45.7394 -270.578 -6.24457 9.48501 65.5596 5.90205 -6.65921 1.81974 2.85843 -5.2164 -1.89428 0 -49.7676 -2.38419e-05 -9.91027 14.5326 1.76399e-06 0 -44.8118 7.15256e-05 13.8891 -20.2071 12.759 -6.75166 -5.53159 1.14185 -5.47347 1.18666 -3.04614 1.19209e-05 -53.3486 -1.19209e-05 5.14726 2.34614 -0.211275 -2.38419e-05 -39.51 3.57628e-05 8.50421 -7.96708 6.24759 2.38419e-05 6.61114 -6.61112 -2.93419 -5.01477 0.609084 4.76837e-05 39.1415 -1.19209e-05 -30.6656 2.56132e-06 -1.20341 19.2871 -3.57628e-05 2.38419e-05 -3.80953 83.2243 -37.6768 29.18 1.19209e-05 0 7.11688e-06 1.02453e-05 -32.8247 25.1552 0 2.38419e-05 13.6397 0.174338 14.578 0.0062 0.0497 0.0339 0 0 0 0 0.0215 0 0 0 0 0 0.022 0 0 0 0 0 0.017 0 0 0 0 -0.0068 0.0873 0.0207 0 0 0 0 0.0267 0 0 0 0 0 0.0213 0 0 0 0 0 0.018 0 0 0 0 -0.0067 0.0922 0.0055 0 0 0 0 0.0266 0 0 0 0 0 0.0228 0 0 0 0 0 0.015 0 0 0 0 -0.0067 0.0925 -0.0113 0 0 0 0 0.0247 0 0 0 0 0 0.0221 0 0 0 0 0 0.018 0 0 0 0 -0.0066 0.0935 -0.0272 0 0 0 0 0.0163 0 0 0 0 0 0.0171 0 0 0 0 0 0.018 0 0 0 0 4.76837e-05 39.1415 -1.19209e-05 39.8878 6.83019e-06 1.24315 -18.6708 -5.96046e-06 1.19209e-05 26.8893 51.1197 -10.3692 -24.0307 4.76837e-05 -3.20375e-05 -2.73149e-06 1.36604e-05 45.1787 -25.583 4.76837e-05 3.57628e-05 4.55525 0.00738406 4.66907 -0.0062 0.0497 0.0339 0 0 0 0 0.0215 0 0 0 0 0 0.022 0 0 0 0 0 0.017 0 0 0 0 0.0068 0.0873 0.0207 0 0 0 0 0.0267 0 0 0 0 0 0.0213 0 0 0 0 0 0.018 0 0 0 0 0.0067 0.0922 0.0055 0 0 0 0 0.0266 0 0 0 0 0 0.0228 0 0 0 0 0 0.015 0 0 0 0 0.0067 0.0925 -0.0113 0 0 0 0 0.0247 0 0 0 0 0 0.0221 0 0 0 0 0 0.018 0 0 0 0 0.0066 0.0935 -0.0272 0 0 0 0 0.0163 0 0 0 0 0 0.0171 0 0 0 0 0 0.018 0 0 0 0 4.76837e-05 39.1415 -1.19209e-05 -5.98765 36.8785 3.60173 0 21.5362 -2.38419e-05 7.68396e-06 -1.8783e-05 1.70755e-06 
-74.0349 45.7394 -270.578 -6.24457 9.48501 65.5596 5.90205 -6.65921 1.81974 2.85843 -5.2164 -1.89428 0 -49.7676 -2.38419e-05 -9.91027 14.5326 1.76399e-06 0 -44.8118 7.15256e-05 13.8891 -20.2071 12.759 -6.75166 -5.53159 1.14185 -5.47347 1.18666 -3.04614 1.19209e-05 -53.3486 -1.19209e-05 5.14726 2.34614 -0.211275 -2.38419e-05 -39.51 3.57628e-05 8.50421 -7.96708 6.24759 2.38419e-05 6.61114 -6.61112 -2.93419 -5.01477 0.609084 4.76837e-05 39.1415 -1.19209e-05 -30.6656 2.56132e-06 -1.20341 19.2871 -3.57628e-05 2.38419e-05 -3.80953 83.2243 -37.6768 29.18 1.19209e-05 0 7.11688e-06 1.02453e-05 -32.8247 25.1552 0 2.38419e-05 13.6397 0.174338 14.578 0.0062 0.0497 0.0339 0 0 0 0 0.0215 0 0 0 0 0 0.022 0 0 0 0 0 0.017 0 0 0 0 -0.0068 0.0873 0.0207 0 0 0 0 0.0267 0 0 0 0 0 0.0213 0 0 0 0 0 0.018 0 0 0 0 -0.0067 0.0922 0.0055 0 0 0 0 0.0266 0 0 0 0 0 0.0228 0 0 0 0 0 0.015 0 0 0 0 -0.0067 0.0925 -0.0113 0 0 0 0 0.0247 0 0 0 0 0 0.0221 0 0 0 0 0 0.018 0 0 0 0 -0.0066 0.0935 -0.0272 0 0 0 0 0.0163 0 0 0 0 0 0.0171 0 0 0 0 0 0.018 0 0 0 0 4.76837e-05 39.1415 -1.19209e-05 39.8878 6.83019e-06 1.24315 -18.6708 -5.96046e-06 1.19209e-05 26.8893 51.1197 -10.3692 -24.0307 4.76837e-05 -3.20375e-05 -2.73149e-06 1.36604e-05 45.1787 -25.583 4.76837e-05 3.57628e-05 4.55525 0.00738406 4.66907 -0.0062 0.0497 0.0339 0 0 0 0 0.0215 0 0 0 0 0 0.022 0 0 0 0 0 0.017 0 0 0 0 0.0068 0.0873 0.0207 0 0 0 0 0.0267 0 0 0 0 0 0.0213 0 0 0 0 0 0.018 0 0 0 0 0.0067 0.0922 0.0055 0 0 0 0 0.0266 0 0 0 0 0 0.0228 0 0 0 0 0 0.015 0 0 0 0 0.0067 0.0925 -0.0113 0 0 0 0 0.0247 0 0 0 0 0 0.0221 0 0 0 0 0 0.018 0 0 0 0 0.0066 0.0935 -0.0272 0 0 0 0 0.0163 0 0 0 0 0 0.0171 0 0 0 0 0 0.018 0 0 0 0 4.76837e-05 39.1415 -1.19209e-05 -5.98765 36.8785 3.60173 0 21.5362 -2.38419e-05 7.68396e-06 -1.8783e-05 1.70755e-06 
-73.9775 45.6965 -270.602 -6.22926 9.40088 65.9092 5.88818 -6.63349 1.81062 3.11624 -6.21048 -1.59777 0 -49.6315 2.38419e-05 -10.1558 16.0522 -1.77683e-06 0 -45.2039 1.19209e-05 11.6506 -19.7085 10.7195 -6.72095 -5.53752 1.14982 -5.5324 1.18716 -2.97643 2.38419e-05 -53.1794 2.38419e-05 5.31496 2.65554 -0.246957 -2.38419e-05 -39.6518 -1.19209e-05 7.56098 -8.06767 5.60272 -7.15256e-05 6.62143 -6.62144 -2.85778 -5.03875 0.446466 0 39.1415 0 -31.2133 1.96368e-05 -1.34494 19.1942 2.38419e-05 0 -10.5854 81.9667 -30.0981 29.1219 -1.19209e-05 0 2.07059e-06 0 -34.4453 25.2136 3.57628e-05 0 11.7989 0.136397 17.5686 0.0062 0.0497 0.0339 0 0 0 0 0.0215 0 0 0 0 0 0.022 0 0 0 0 0 0.017 0 0 0 0 -0.0068 0.0873 0.0207 0 0 0 0 0.0267 0 0 0 0 0 0.0213 0 0 0 0 0 0.018 0 0 0 0 -0.0067 0.0922 0.0055 0 0 0 0 0.0266 0 0 0 0 0 0.0228 0 0 0 0 0 0.015 0 0 0 0 -0.0067 0.0925 -0.0113 0 0 0 0 0.0247 0 0 0 0 0 0.0221 0 0 0 0 0 0.018 0 0 0 0 -0.0066 0.0935 -0.0272 0 0 0 0 0.0163 0 0 0 0 0 0.0171 0 0 0 0 0 0.018 0 0 0 0 0 39.1415 0 39.721 -8.53774e-06 1.38341 -18.6601 1.19209e-05 -1.19209e-05 27.3402 51.7375 -10.6336 -24.0215 0 -3.68804e-05 1.16398e-05 -3.41509e-06 45.855 -26.6251 2.38419e-05 -2.38419e-05 4.94517 -0.0615195 1.38937 -0.0062 0.0497 0.0339 0 0 0 0 0.0215 0 0 0 0 0 0.022 0 0 0 0 0 0.017 0 0 0 0 0.0068 0.0873 0.0207 0 0 0 0 0.0267 0 0 0 0 0 0.0213 0 0 0 0 0 0.018 0 0 0 0 0.0067 0.0922 0.0055 0 0 0 0 0.0266 0 0 0 0 0 0.0228 0 0 0 0 0 0.015 0 0 0 0 0.0067 0.0925 -0.0113 0 0 0 0 0.0247 0 0 0 0 0 0.0221 0 0 0 0 0 0.018 0 0 0 0 0.0066 0.0935 -0.0272 0 0 0 0 0.0163 0 0 0 0 0 0.0171 0 0 0 0 0 0.018 0 0 0 0 0 39.1415 0 -6.51167 36.6784 3.90036 2.38419e-05 21.6295 0 1.10991e-05 -1.28066e-05 1.70755e-06 
-73.8805 45.6395 -270.629 -6.14208 9.33064 66.2968 5.86848 -6.60495 1.78946 3.3413 -7.46646 -1.13728 2.38419e-05 -49.5363 -2.38419e-05 -10.3361 18.1044 -1.07789e-05 2.38419e-05 -45.6241 0 8.1959 -18.6221 7.61046 -6.69184 -5.53995 1.16946 -5.60325 1.16853 -2.80022 2.38419e-05 -52.9228 -4.76837e-05 5.39019 3.16334 -0.298319 -4.76837e-05 -39.8614 2.38419e-05 6.11437 -8.18179 4.59866 -4.76837e-05 6.63712 -6.63707 -2.82698 -5.09172 0.292127 -2.38419e-05 39.1415 -2.38419e-05 -31.5683 -8.53774e-07 -1.60287 19.1089 1.19209e-05 0 -18.3466 79.9562 -21.8711 29.0904 -1.19209e-05 4.76837e-05 -1.38674e-06 -3.4151e-06 -35.4934 25.214 2.38419e-05 -2.38419e-05 8.33545 -0.075499 21.5921 0.0062 0.0497 0.0339 0 0 0 0 0.0215 0 0 0 0 0 0.022 0 0 0 0 0 0.017 0 0 0 0 -0.0068 0.0873 0.0207 0 0 0 0 0.0267 0 0 0 0 0 0.0213 0 0 0 0 0 0.018 0 0 0 0 -0.0067 0.0922 0.0055 0 0 0 0 0.0266 0 0 0 0 0 0.0228 0 0 0 0 0 0.015 0 0 0 0 -0.0067 0.0925 -0.0113 0 0 0 0 0.0247 0 0 0 0 0 0.0221 0 0 0 0 0 0.018 0 0 0 0 -0.0066 0.0935 -0.0272 0 0 0 0 0.0163 0 0 0 0 0 0.0171 0 0 0 0 0 0.018 0 0 0 0 -2.38419e-05 39.1415 -2.38419e-05 39.4919 6.83019e-06 1.64233 -18.65 0 0 28.0259 52.5914 -11.2015 -23.9688 2.38419e-05 -1.18278e-05 6.44586e-06 6.83019e-06 46.6024 -27.8117 -2.38419e-05 1.78814e-05 4.5134 -0.167842 -3.63157 -0.0062 0.0497 0.0339 0 0 0 0 0.0215 0 0 0 0 0 0.022 0 0 0 0 0 0.017 0 0 0 0 0.0068 0.0873 0.0207 0 0 0 0 0.0267 0 0 0 0 0 0.0213 0 0 0 0 0 0.018 0 0 0 0 0.0067 0.0922 0.0055 0 0 0 0 0.0266 0 0 0 0 0 0.0228 0 0 0 0 0 0.015 0 0 0 0 0.0067 0.0925 -0.0113 0 0 0 0 0.0247 0 0 0 0 0 0.0221 0 0 0 0 0 0.018 0 0 0 0 0.0066 0.0935 -0.0272 0 0 0 0 0.0163 0 0 0 0 0 0.0171 0 0 0 0 0 0.018 0 0 0 0 -2.38419e-05 39.1415 -2.38419e-05 -7.25276 36.5517 4.33431 0 21.7805 0 1.02453e-05 -1.62217e-05 1.70755e-06 
-73.8805 45.6395 -270.629 -6.14208 9.33064 66.2968 5.86848 -6.60495 1.78946 3.3413 -7.46646 -1.13728 2.38419e-05 -49.5363 -2.38419e-05 -10.3361 18.1044 -1.07789e-05 2.38419e-05 -45.6241 0 8.1959 -18.6221 7.61046 -6.69184 -5.53995 1.16946 -5.60325 1.16853 -2.80022 2.38419e-05 -52.9228 -4.76837e-05 5.39019 3.16334 -0.298319 -4.76837e-05 -39.8614 2.38419e-05 6.11437 -8.18179 4.59866 -4.76837e-05 6.63712 -6.63707 -2.82698 -5.09172 0.292127 -2.38419e-05 39.1415 -2.38419e-05 -31.5683 -8.53774e-07 -1.60287 19.1089 1.19209e-05 0 -18.3466 79.9562 -21.8711 29.0904 -1.19209e-05 4.76837e-05 -1.38674e-06 -3.4151e-06 -35.4934 25.214 2.38419e-05 -2.38419e-05 8.33545 -0.075499 21.5921 0.0062 0.0497 0.0339 0 0 0 0 0.0215 0 0 0 0 0 0.022 0 0 0 0 0 0.017 0 0 0 0 -0.0068 0.0873 0.0207 0 0 0 0 0.0267 0 0 0 0 0 0.0213 0 0 0 0 0 0.018 0 0 0 0 -0.0067 0.0922 0.0055 0 0 0 0 0.0266 0 0 0 0 0 0.0228 0 0 0 0 0 0.015 0 0 0 0 -0.0067 0.0925 -0.0113 0 0 0 0 0.0247 0 0 0 0 0 0.0221 0 0 0 0 0 0.018 0 0 0 0 -0.0066 0.0935 -0.0272 0 0 0 0 0.0163 0 0 0 0 0 0.0171 0 0 0 0 0 0.018 0 0 0 0 -2.38419e-05 39.1415 -2.38419e-05 39.4919 6.83019e-06 1.64233 -18.65 0 0 28.0259 52.5914 -11.2015 -23.9688 2.38419e-05 -1.18278e-05 6.44586e-06 6.83019e-06 46.6024 -27.8117 -2.38419e-05 1.78814e-05 4.5134 -0.167842 -3.63157 -0.0062 0.0497 0.0339 0 0 0 0 0.0215 0 0 0 0 0 0.022 0 0 0 0 0 0.017 0 0 0 0 0.0068 0.0873 0.0207 0 0 0 0 0.0267 0 0 0 0 0 0.0213 0 0 0 0 0 0.018 0 0 0 0 0.0067 0.0922 0.0055 0 0 0 0 0.0266 0 0 0 0 0 0.0228 0 0 0 0 0 0.015 0 0 0 0 0.0067 0.0925 -0.0113 0 0 0 0 0.0247 0 0 0 0 0 0.0221 0 0 0 0 0 0.018 0 0 0 0 0.0066 0.0935 -0.0272 0 0 0 0 0.0163 0 0 0 0 0 0.0171 0 0 0 0 0 0.018 0 0 0 0 -2.38419e-05 39.1415 -2.38419e-05 -7.25276 36.5517 4.33431 0 21.7805 0 1.02453e-05 -1.62217e-05 1.70755e-06 
